<?xml version="1.0" standalone="no"?>
<!DOCTYPE svg PUBLIC "-//W3C//DTD SVG 20010904//EN"
 "http://www.w3.org/TR/2001/REC-SVG-20010904/DTD/svg10.dtd">
<svg version="1.0" xmlns="http://www.w3.org/2000/svg"
 width="300.000000pt" height="298.000000pt" viewBox="0 0 300.000000 298.000000"
 preserveAspectRatio="xMidYMid meet">
<metadata>
Created by potrace 1.10, written by Peter Selinger 2001-2011
</metadata>
<g transform="translate(0.000000,298.000000) scale(0.100000,-0.100000)"
fill="#ff0022ff" stroke="none">
<path d="M1267 2780 c-343 -74 -616 -288 -774 -605 -127 -254 -155 -546 -78
-806 25 -84 80 -205 98 -216 6 -3 8 -2 6 3 -3 5 -11 21 -19 37 -39 78 70 260
194 324 l29 15 -5 -56 c-4 -45 -10 -59 -30 -76 -31 -24 -98 -127 -120 -185
-24 -63 -30 -112 -17 -137 24 -45 130 -167 206 -238 l78 -71 6 93 c4 51 11
107 17 123 21 67 74 156 127 213 63 68 97 95 330 257 606 422 607 423 640 488
59 119 2 243 -127 278 -97 26 -229 -44 -257 -136 -5 -16 -10 -23 -10 -14 -2
38 -34 121 -56 147 -14 17 -25 35 -25 40 0 21 114 93 178 112 198 61 403 -32
468 -212 24 -65 21 -181 -6 -253 -38 -98 -85 -138 -535 -445 -448 -306 -525
-371 -586 -494 -30 -63 -34 -80 -37 -171 l-4 -101 26 -12 c15 -7 31 -12 35
-12 4 0 11 41 14 92 7 111 44 197 109 252 77 67 71 66 682 66 429 1 547 3 531
12 -11 7 -66 14 -122 16 -57 2 -103 6 -103 8 0 2 11 14 25 28 20 20 25 35 25
73 0 26 4 54 9 62 13 21 31 4 32 -32 l1 -32 8 32 c8 35 -7 133 -21 133 -12 0
-11 -13 0 -43 15 -38 -11 -41 -48 -6 -29 27 -37 29 -113 30 -46 1 -90 3 -98 4
-8 1 -35 3 -60 4 l-45 1 30 20 c17 12 91 61 165 111 263 175 371 262 419 338
17 25 35 51 41 58 5 7 10 19 10 27 0 25 22 66 36 66 8 0 16 -10 19 -22 3 -13
9 -43 15 -68 17 -77 24 -300 11 -376 -11 -65 -34 -155 -51 -199 -47 -123 -105
-235 -122 -235 -6 0 -8 -6 -5 -14 6 -15 -46 -81 -102 -131 -19 -16 -39 -36
-45 -43 -6 -8 -25 -28 -41 -46 l-31 -32 -389 -3 c-218 -1 -407 -6 -428 -12
-49 -13 -107 -71 -107 -107 l1 -27 13 24 c13 23 14 19 18 -47 2 -39 7 -74 11
-79 17 -16 279 -16 372 1 240 44 431 145 611 322 115 113 172 192 226 314 66
150 89 255 95 425 6 161 -7 258 -49 392 l-21 68 -8 -35 c-9 -40 -69 -156 -111
-216 -45 -64 -225 -206 -495 -391 -56 -39 -100 -73 -97 -75 9 -10 -61 -18
-149 -17 -88 1 -89 1 -71 21 18 19 18 19 -6 10 -76 -30 -110 -46 -110 -51 0
-4 -15 -15 -32 -26 -42 -25 -88 -75 -88 -97 0 -9 15 -33 34 -53 20 -21 30 -38
23 -40 -7 -2 -50 -6 -97 -8 -100 -5 -174 -33 -240 -93 -42 -38 -43 -38 -27 -9
30 57 157 161 392 319 312 209 582 403 619 445 24 26 38 50 71 119 53 110 29
264 -59 385 -31 42 -144 113 -201 125 -87 20 -173 21 -228 5 -78 -22 -181 -87
-203 -128 -18 -34 -18 -36 -1 -63 10 -15 32 -56 48 -92 44 -95 45 -95 87 -47
77 87 98 99 181 100 61 0 74 -3 105 -27 85 -64 68 -209 -33 -277 -19 -13 -74
-53 -120 -88 -47 -35 -131 -95 -186 -133 -55 -37 -122 -84 -149 -103 -28 -19
-52 -32 -55 -29 -3 3 1 11 10 17 30 23 30 48 3 95 -26 44 -26 46 -8 56 10 6
42 34 70 62 85 84 117 199 90 318 -29 121 -81 192 -181 241 -79 39 -159 51
-370 54 -129 2 -131 2 -159 -24 l-28 -26 0 -510 0 -510 -20 27 c-13 16 -27 24
-39 21 -26 -7 -24 3 10 43 27 33 47 110 29 110 -4 0 -8 6 -8 14 0 7 -7 19 -15
26 -11 9 -12 17 -4 32 14 26 24 721 11 744 -14 25 -22 -172 -17 -462 l4 -260
-57 -34 c-74 -44 -138 -109 -147 -149 -9 -44 -35 -92 -45 -86 -28 17 -60 205
-60 353 0 133 15 224 57 350 72 215 231 428 411 551 89 60 230 128 302 145 8
2 42 11 75 19 178 45 432 35 593 -21 29 -11 55 -22 59 -25 3 -4 12 -7 18 -7 6
0 48 -20 93 -44 45 -24 82 -42 82 -40 0 16 66 -35 111 -85 104 -114 149 -220
149 -347 0 -117 -36 -196 -139 -306 -39 -43 -41 -48 -21 -48 17 0 6 -12 -48
-55 -39 -30 -73 -55 -76 -55 -7 0 -149 -100 -246 -173 -36 -27 -72 -52 -80
-55 -14 -6 -24 -13 -70 -52 -41 -35 -9 -15 295 185 387 256 444 318 464 502
17 159 -3 213 -127 340 -161 164 -386 286 -602 327 -116 22 -329 20 -443 -4z
m-55 -461 c111 -24 197 -89 240 -184 35 -77 33 -200 -5 -277 -31 -64 -106
-136 -149 -145 -15 -3 -28 -11 -28 -17 0 -6 21 -35 46 -64 25 -28 41 -52 36
-52 -5 0 -40 -23 -77 -51 -67 -50 -69 -50 -84 -31 -9 11 -48 57 -87 103 -39
46 -86 108 -104 136 -18 29 -35 51 -37 49 -3 -2 -2 -24 2 -49 6 -40 9 -43 31
-39 14 2 24 0 24 -7 0 -6 -14 -11 -30 -11 l-31 0 1 -187 1 -188 -44 -47 c-47
-50 -115 -168 -98 -168 6 0 36 33 66 74 58 79 75 96 75 73 0 -7 -14 -26 -30
-42 -16 -16 -30 -34 -30 -41 0 -6 -7 -17 -15 -24 -21 -17 -73 -157 -81 -218
-3 -29 -10 -52 -14 -52 -8 0 -26 40 -33 75 -3 12 -5 7 -6 -12 -1 -40 -13 -42
-36 -6 -10 16 -43 52 -73 81 l-55 53 13 57 c14 66 58 155 101 203 l30 34 -6
-145 c-4 -83 -3 -156 3 -170 7 -20 11 -9 16 60 4 47 11 101 16 120 l8 35 1
-45 c1 -38 29 -115 31 -85 0 6 0 281 0 613 l0 602 179 0 c99 0 204 -5 233 -11z
m1197 -105 c4 -43 3 -101 -2 -129 -9 -51 -58 -148 -81 -162 -7 -5 -18 -17 -24
-28 -6 -11 -12 -14 -12 -8 0 7 15 32 33 56 52 68 69 138 65 261 -4 121 10 127
21 10z m-1353 -611 c47 -59 50 -66 24 -58 l-23 7 21 -28 c11 -16 32 -40 46
-53 l26 -25 -42 -38 -43 -39 40 22 c48 26 66 48 58 73 -5 18 -4 18 18 3 13
-10 32 -14 46 -11 13 4 23 4 23 1 0 -3 -42 -33 -92 -68 -51 -35 -112 -81 -136
-103 -41 -37 -70 -44 -41 -10 14 17 18 79 19 267 0 111 8 120 56 60z m819
-271 l270 -4 2 -84 1 -84 -346 0 -346 0 -33 31 -32 32 37 27 c112 81 146 100
161 93 9 -4 138 -9 286 -11z m250 -531 c7 -12 -56 -55 -150 -103 -156 -79
-342 -118 -522 -108 -56 3 -107 10 -113 16 -6 6 -14 36 -17 66 -5 49 -3 57 18
77 13 12 39 25 59 30 19 5 183 12 364 15 181 3 331 8 334 11 8 8 20 6 27 -4z"/>
<path d="M1028 2172 l-68 -3 0 -174 0 -175 103 0 c117 0 165 16 210 69 46 55
49 152 6 212 -39 56 -118 78 -251 71z m162 -54 c59 -31 85 -68 84 -122 -2 -87
-69 -133 -197 -136 l-78 -1 2 135 c0 92 4 136 12 140 7 2 39 5 72 5 44 1 73
-5 105 -21z"/>
<path d="M1070 2100 c-18 -6 -6 -8 47 -9 67 -1 73 -3 97 -32 60 -71 1 -163
-98 -152 -26 3 -46 1 -50 -6 -5 -7 2 -12 16 -13 13 0 37 -2 53 -3 38 -3 92 21
106 48 18 33 6 111 -22 140 -27 28 -104 42 -149 27z"/>
<path d="M1039 2038 c0 -24 -2 -52 -3 -64 -1 -11 1 -29 5 -40 4 -11 8 16 8 64
1 45 -1 82 -4 82 -3 0 -5 -19 -6 -42z"/>
<path d="M1039 1483 c-4 -79 -4 -93 3 -93 5 0 8 27 8 60 0 60 -9 85 -11 33z"/>
<path d="M1730 674 c-30 -8 -112 -17 -183 -21 -70 -3 -125 -8 -123 -10 13 -13
211 -1 294 18 50 11 92 23 92 25 0 6 -19 3 -80 -12z"/>
<path d="M1417 2723 c-1 -1 -36 -6 -77 -12 -125 -18 -163 -28 -248 -67 -29
-13 -57 -24 -62 -24 -18 0 -182 -102 -221 -137 -46 -42 -50 -68 -13 -77 15 -4
110 -9 212 -12 201 -5 250 -14 341 -64 30 -17 62 -30 71 -30 10 0 46 22 81 50
35 27 71 50 80 50 8 0 19 4 25 9 32 31 214 49 279 28 11 -3 31 -10 45 -14 65
-21 132 -68 194 -134 72 -78 89 -80 27 -2 -51 64 -86 95 -145 126 -171 94
-381 72 -538 -56 -54 -44 -57 -45 -72 -28 -9 10 -54 33 -99 51 l-82 33 -220 5
-220 5 48 41 c107 95 297 187 459 222 40 9 132 19 203 23 85 5 111 9 75 11
-64 4 -141 6 -143 3z"/>
<path d="M1852 2641 c120 -60 152 -82 205 -140 45 -50 133 -190 133 -213 0 -7
7 -23 15 -35 35 -50 14 -264 -36 -364 -9 -19 -14 -41 -10 -47 19 -32 85 153
97 273 8 78 -18 212 -53 277 -85 157 -236 263 -413 292 -25 4 -9 -7 62 -43z"/>
<path d="M1206 2579 c-14 -11 -26 -29 -26 -40 0 -31 19 -59 38 -59 10 0 31
-13 47 -30 38 -39 95 -43 95 -7 0 31 -68 133 -98 147 -29 13 -25 14 -56 -11z
m59 -15 c20 -20 16 -53 -7 -68 -40 -24 -80 44 -42 71 23 17 29 16 49 -3z m63
-76 c19 -19 15 -48 -7 -48 -28 0 -47 26 -31 45 15 18 22 19 38 3z"/>
<path d="M1416 2558 c-29 -40 18 -86 54 -53 23 20 26 45 8 63 -18 18 -45 14
-62 -10z"/>
<path d="M2675 2437 c-21 -16 -17 -56 7 -71 14 -8 22 -6 39 11 24 24 21 46 -9
62 -14 7 -24 7 -37 -2z"/>
<path d="M688 2349 c-57 -32 -182 -292 -214 -444 -26 -125 -26 -365 0 -448 10
-32 20 -57 22 -54 3 2 -2 44 -11 92 -8 48 -15 120 -15 159 0 91 24 251 51 341
24 80 114 258 161 316 33 41 35 54 6 38z"/>
<path d="M1848 2130 c40 -24 55 -62 47 -112 -9 -51 -65 -101 -291 -258 -98
-69 -181 -126 -184 -128 -3 -1 -14 4 -24 11 -17 12 -14 18 43 72 72 69 110
132 116 195 l5 45 -14 -41 c-24 -70 -53 -117 -115 -184 -33 -36 -61 -70 -61
-76 0 -16 47 -35 67 -27 10 4 63 37 118 74 55 37 138 92 185 123 144 94 180
138 180 217 0 47 -17 72 -67 98 -36 19 -40 12 -5 -9z"/>
<path d="M1760 2013 c-47 -35 -96 -72 -109 -81 -13 -9 -38 -30 -55 -46 l-31
-28 30 18 c31 18 187 135 240 179 61 50 7 21 -75 -42z"/>
<path d="M549 1852 c-10 -14 -19 -39 -19 -57 0 -27 9 -40 50 -75 28 -23 50
-37 50 -31 0 5 14 23 31 39 29 27 31 33 24 72 -4 23 -16 51 -26 61 -27 27 -85
22 -110 -9z m103 -19 c36 -32 10 -93 -40 -93 -30 0 -62 26 -62 49 0 51 64 79
102 44z"/>
<path d="M2531 1652 c-1 -69 -13 -143 -46 -287 -3 -11 4 0 16 25 41 90 61 252
39 320 -5 17 -8 -1 -9 -58z"/>
<path d="M2243 1569 c-66 -42 -47 -128 39 -172 27 -14 44 -19 38 -12 -9 11 -5
17 19 30 17 8 38 27 47 41 l17 25 33 -32 c19 -18 34 -28 34 -21 0 21 -151 162
-174 162 -11 0 -35 -10 -53 -21z m92 -24 c30 -29 32 -58 5 -85 -43 -43 -110
-14 -110 46 0 26 6 37 28 48 38 21 49 20 77 -9z"/>
<path d="M2438 1258 c-27 -57 -44 -81 -63 -88 -45 -17 -63 -12 -80 23 -21 42
-54 85 -55 69 0 -7 11 -30 25 -50 14 -20 25 -42 25 -49 0 -22 83 -16 113 7 31
24 80 121 75 147 -2 12 -17 -10 -40 -59z"/>
<path d="M233 1066 c-73 -59 -133 -109 -133 -112 0 -8 44 17 70 41 14 12 39
30 55 40 23 14 20 8 -15 -24 -25 -24 -50 -45 -55 -49 -26 -17 -85 -72 -78 -72
8 0 244 187 276 219 10 10 17 28 15 41 -3 20 -17 10 -135 -84z"/>
<path d="M465 1116 c-25 -20 -28 -27 -19 -46 l10 -23 29 28 c19 16 23 25 13
21 -21 -6 -25 20 -5 27 6 2 10 7 7 10 -3 3 -19 -4 -35 -17z"/>
<path d="M253 936 c-185 -150 -186 -151 -155 -143 19 4 21 3 11 -9 -27 -32 1
-21 57 24 32 26 84 66 114 88 30 23 79 64 108 90 47 43 52 51 40 65 -12 15
-30 3 -175 -115z"/>
<path d="M2306 1025 l-26 -34 -493 -3 -492 -3 -47 -28 c-81 -47 -138 -155
-138 -260 0 -55 12 -77 41 -77 21 0 25 13 38 103 16 111 61 165 159 186 29 6
198 8 449 5 255 -3 403 -1 407 5 10 16 -29 22 -147 23 -61 0 -121 4 -132 9
-12 4 41 8 125 9 251 3 235 -1 275 73 21 37 13 34 -19 -8z"/>
<path d="M474 972 c-60 -56 -156 -136 -241 -200 -41 -31 -49 -52 -19 -52 14 0
176 121 232 172 16 15 48 43 70 63 31 26 41 41 37 55 -3 11 -8 20 -12 20 -3 0
-33 -26 -67 -58z"/>
<path d="M1241 623 c-5 -10 -12 -17 -15 -15 -3 1 -6 -1 -6 -5 0 -19 33 -6 36
15 5 26 -1 28 -15 5z"/>
<path d="M652 325 c-39 -33 -41 -67 -7 -100 27 -28 70 -32 98 -11 24 18 6 31
-43 31 -28 0 -36 4 -38 21 -4 30 24 51 48 36 14 -9 21 -8 31 4 14 18 4 30 -32
39 -19 5 -34 0 -57 -20z"/>
<path d="M841 324 c-38 -32 -40 -66 -6 -99 30 -30 64 -32 99 -4 41 32 34 89
-15 114 -38 20 -42 19 -78 -11z m79 -34 c15 -28 -22 -65 -50 -50 -22 12 -26
40 -8 58 18 18 46 14 58 -8z"/>
<path d="M1030 275 c0 -60 3 -75 15 -75 11 0 15 11 15 38 l1 37 34 -37 c53
-58 65 -52 65 33 0 62 -2 70 -17 67 -13 -3 -18 -13 -17 -36 1 -18 -1 -32 -4
-32 -3 0 -20 18 -39 40 -19 22 -39 40 -44 40 -5 0 -9 -34 -9 -75z"/>
<path d="M1252 330 c-31 -29 -27 -49 13 -66 41 -17 48 -39 10 -30 -33 9 -50
-1 -34 -20 16 -19 64 -18 84 2 25 26 15 58 -22 69 -18 5 -33 15 -33 22 0 16 5
16 30 3 24 -13 37 5 20 25 -17 21 -42 19 -68 -5z"/>
<path d="M1407 293 c3 -32 12 -66 21 -75 22 -25 67 -23 86 4 21 30 22 128 2
128 -11 0 -16 -15 -18 -52 -3 -49 -5 -53 -28 -53 -23 0 -25 5 -30 50 -4 36
-10 51 -22 53 -15 3 -16 -4 -11 -55z"/>
<path d="M1610 348 c0 -2 -2 -36 -3 -75 l-3 -73 54 0 c46 0 53 3 50 18 -2 11
-14 18 -36 20 -32 3 -32 4 -32 58 0 41 -4 54 -15 54 -8 0 -15 -1 -15 -2z"/>
<path d="M1750 330 c0 -13 7 -20 20 -20 18 0 20 -7 20 -55 0 -49 2 -55 21 -55
19 0 21 5 17 55 -3 51 -1 55 19 55 16 0 20 5 16 20 -5 17 -14 20 -59 20 -47 0
-54 -2 -54 -20z"/>
<path d="M1925 295 c-7 -62 0 -95 21 -95 11 0 14 17 14 75 0 57 -3 75 -14 75
-9 0 -16 -18 -21 -55z"/>
<path d="M2040 275 c0 -67 2 -75 19 -75 17 0 18 5 14 43 l-6 42 32 -29 c17
-17 31 -36 31 -43 0 -7 9 -13 20 -13 18 0 20 7 20 75 0 60 -3 75 -15 75 -11 0
-15 -12 -15 -47 l0 -48 -31 38 c-17 20 -39 42 -50 47 -18 10 -19 7 -19 -65z"/>
<path d="M2266 329 c-54 -42 -18 -129 54 -129 32 0 60 28 60 58 0 18 -6 22
-35 22 -19 0 -35 -4 -35 -10 0 -5 7 -10 15 -10 20 0 19 -19 -1 -27 -9 -3 -25
3 -37 16 -29 29 -13 56 34 57 64 3 66 3 40 24 -30 26 -62 25 -95 -1z"/>
<path d="M2510 270 c-11 -7 -5 -10 23 -10 20 0 37 5 37 10 0 13 -40 13 -60 0z"/>
</g>
</svg>
