<?xml version="1.0" standalone="no"?>
<!DOCTYPE svg PUBLIC "-//W3C//DTD SVG 20010904//EN"
 "http://www.w3.org/TR/2001/REC-SVG-20010904/DTD/svg10.dtd">
<svg version="1.0" xmlns="http://www.w3.org/2000/svg"
 width="1024.000000pt" height="1024.000000pt" viewBox="0 0 1024.000000 1024.000000"
 preserveAspectRatio="xMidYMid meet">
<metadata>
Created by potrace 1.16, written by Peter Selinger 2001-2019
</metadata>
<g transform="translate(0.000000,1024.000000) scale(0.100000,-0.100000)"
fill="#A855F7" stroke="none">
<path d="M6680 8674 c-250 -84 -622 -300 -899 -520 -97 -77 -111 -92 -108
-114 3 -14 15 -72 27 -130 41 -193 39 -210 -23 -210 -24 0 -31 7 -52 51 -13
29 -31 82 -41 118 -24 94 -31 99 -81 59 -93 -75 -530 -577 -795 -915 -6 -8 -5
-20 6 -34 24 -35 197 -209 207 -209 10 0 53 46 104 113 48 62 579 570 825 787
58 52 150 137 205 190 253 245 755 693 764 684 6 -5 -1333 -1341 -1673 -1670
l-159 -153 27 -42 c25 -37 186 -200 205 -207 17 -6 448 331 612 477 52 47 113
100 134 117 l39 31 -74 22 c-127 39 -180 72 -180 113 0 14 206 3 310 -16 73
-14 75 -14 90 7 8 12 68 82 134 157 262 299 433 543 567 812 70 139 103 235
120 344 14 96 4 129 -51 156 -54 27 -122 22 -240 -18z"/>
<path d="M7146 8381 l-79 -6 -18 -60 c-9 -33 -38 -103 -63 -156 -25 -53 -46
-98 -46 -100 0 -2 55 -4 123 -4 135 -1 164 -10 210 -64 60 -72 58 -26 55
-1061 l-3 -945 -22 -40 c-27 -51 -68 -90 -115 -109 -33 -14 -178 -16 -1268
-16 l-1231 0 -30 -67 c-52 -115 -56 -118 -254 -143 -150 -19 -230 -43 -251
-75 -13 -20 -11 -20 1639 -17 1416 3 1656 5 1682 18 68 32 130 89 160 149 l30
59 3 1150 c3 860 0 1165 -9 1206 -25 118 -96 212 -197 257 -61 29 -164 36
-316 24z"/>
<path d="M2815 8366 c-110 -35 -186 -115 -223 -236 -7 -24 -12 -418 -14 -1205
l-3 -1170 26 -55 c31 -66 67 -103 145 -150 l58 -35 358 -2 357 -2 11 34 c6 18
41 82 77 142 36 59 68 114 70 121 4 9 -59 12 -296 12 -230 0 -309 3 -334 13
-41 18 -101 85 -115 128 -8 23 -12 339 -14 989 -3 880 -2 957 14 986 25 45 91
101 135 113 52 15 922 14 1513 -2 256 -6 544 -12 640 -12 l175 0 95 80 c200
170 226 191 272 220 27 17 48 33 48 37 0 3 -665 6 -1477 7 -1166 0 -1486 -3
-1518 -13z m2364 -92 c52 -37 60 -118 13 -154 -28 -23 -53 -25 -85 -9 -72 37
-77 127 -9 163 35 20 52 20 81 0z"/>
<path d="M4525 6910 c-51 -39 -95 -108 -102 -160 -6 -39 -4 -43 43 -83 63 -54
353 -345 419 -420 37 -42 57 -57 76 -57 34 0 174 102 194 140 31 61 30 63
-227 316 -230 225 -312 294 -347 294 -9 0 -34 -14 -56 -30z m90 -130 c56 -42
277 -251 358 -338 51 -56 67 -80 67 -103 0 -17 -5 -29 -13 -29 -7 0 -51 39
-97 86 -47 47 -154 149 -237 226 -116 106 -153 146 -153 164 0 33 25 31 75 -6z"/>
<path d="M4436 6529 c-85 -63 -244 -145 -360 -184 l-121 -41 -17 -124 c-19
-132 -70 -304 -121 -405 -16 -33 -56 -100 -88 -148 -33 -49 -57 -93 -54 -97 3
-4 19 -10 37 -13 26 -4 53 6 135 49 106 57 272 127 358 151 28 7 112 17 188
20 l137 6 11 41 c42 164 137 362 215 446 l24 26 -153 151 -152 152 -39 -30z
m-106 -374 c37 -19 50 -43 50 -93 0 -33 -6 -45 -35 -71 -41 -35 -62 -38 -112
-14 -30 14 -37 14 -43 2 -21 -35 -324 -333 -328 -321 -2 7 12 34 33 60 41 54
264 282 275 282 3 0 5 25 2 55 -4 45 -1 60 14 76 36 40 94 50 144 24z"/>
<path d="M5097 5400 l-448 -5 23 -35 c47 -70 47 -70 486 -70 l392 0 35 33 c19
17 37 44 41 60 6 27 5 27 -37 25 -24 -2 -246 -5 -492 -8z"/>
<path d="M6968 5393 l-1187 -3 -19 -43 c-24 -52 -93 -120 -147 -144 -36 -16
-81 -18 -457 -21 -273 -2 -431 1 -457 8 -71 19 -133 70 -166 138 l-30 61
-1219 0 -1219 1 5 -77 c6 -94 29 -145 96 -209 53 -51 123 -87 202 -103 41 -9
742 -11 2805 -9 l2750 3 69 34 c124 63 199 166 213 292 6 63 -2 82 -37 76 -8
-1 -549 -3 -1202 -4z m-361 -133 c46 -42 36 -99 -22 -127 -34 -16 -35 -16 -61
8 -36 34 -46 54 -38 84 7 27 46 54 80 55 11 0 30 -9 41 -20z m378 -5 c14 -13
25 -36 25 -50 0 -33 -41 -75 -74 -75 -26 0 -76 50 -76 77 0 22 55 73 80 73 11
0 32 -11 45 -25z m369 0 c26 -26 29 -54 9 -88 -27 -46 -65 -48 -103 -7 -37 39
-37 54 -4 85 30 28 75 33 98 10z"/>
<path d="M4814 4755 c-110 -28 -184 -62 -263 -120 -118 -87 -230 -257 -267
-405 -26 -106 3 -178 89 -219 95 -46 212 -14 255 69 19 38 22 60 22 162 0 142
11 174 72 216 57 39 106 52 198 52 133 0 232 -56 288 -164 22 -43 26 -64 26
-136 0 -122 -28 -205 -113 -332 -72 -106 -132 -168 -516 -533 -176 -167 -269
-273 -311 -358 -31 -61 -54 -132 -54 -170 l0 -27 780 2 c772 3 781 3 786 23
33 144 134 632 134 650 0 20 -7 26 -41 35 -22 6 -61 10 -86 8 l-45 -3 -33 -81
c-54 -136 -128 -225 -220 -265 -47 -21 -71 -23 -399 -31 -192 -4 -351 -6 -354
-3 -7 7 60 68 122 113 29 20 98 71 152 112 433 329 513 409 604 603 83 177 82
347 -3 512 -80 154 -221 259 -404 299 -112 25 -305 21 -419 -9z"/>
<path d="M2418 4763 l-346 -3 -4 -60 -3 -59 50 -12 c90 -21 143 -62 164 -130
16 -51 7 -1387 -9 -1444 -17 -55 -76 -112 -125 -120 -92 -15 -86 -9 -83 -78
l3 -62 428 -3 427 -2 0 69 0 69 -62 11 c-75 13 -106 33 -133 87 -18 36 -20 62
-23 313 l-3 273 85 -3 c101 -5 107 -9 212 -156 38 -52 119 -164 179 -248 61
-84 139 -194 174 -244 39 -56 83 -105 114 -129 l51 -37 274 -3 273 -4 -3 74
-3 73 -54 8 c-107 15 -187 87 -330 297 -43 63 -129 187 -190 275 -61 87 -111
164 -111 170 0 5 35 23 78 39 101 37 156 73 229 149 104 108 151 240 138 383
-25 270 -212 451 -510 494 -89 12 -441 18 -887 13z m604 -243 c165 -24 290
-111 323 -225 13 -42 16 -83 13 -150 -6 -150 -66 -244 -196 -309 -99 -49 -159
-61 -314 -61 -75 0 -139 2 -141 5 -3 3 -7 173 -9 378 l-3 372 130 0 c72 0 160
-5 197 -10z"/>
<path d="M6030 4703 c0 -60 1 -63 28 -69 83 -19 105 -28 138 -56 72 -63 69
-37 70 -588 1 -528 6 -597 55 -743 64 -191 243 -363 449 -430 117 -39 294 -61
430 -53 143 7 237 31 360 90 166 79 273 187 351 351 65 139 70 177 79 675 9
451 19 600 46 651 22 43 65 78 109 90 22 6 48 12 58 15 14 4 17 17 17 67 l0
62 -392 -3 -393 -2 0 -55 c0 -63 6 -70 73 -79 64 -9 123 -46 152 -98 l25 -43
0 -510 c0 -453 -2 -518 -18 -585 -59 -253 -208 -374 -457 -374 -173 0 -257 29
-350 123 -70 69 -115 160 -143 290 -21 91 -22 123 -22 571 l0 475 24 48 c28
57 52 75 134 97 l62 17 3 64 3 64 -446 0 -445 0 0 -62z"/>
<path d="M7980 2977 c-54 -27 -59 -95 -10 -147 36 -39 72 -39 111 -1 51 52 37
127 -28 152 -32 12 -43 11 -73 -4z"/>
<path d="M5483 2502 l-53 -3 0 -127 c0 -70 -3 -198 -7 -286 l-6 -159 164 5
c90 3 176 2 191 -3 26 -7 27 -6 33 39 3 26 10 57 15 68 8 21 6 22 -136 29
l-144 7 -2 217 -3 216 -52 -3z"/>
<path d="M5957 2504 c-4 -4 -7 -34 -7 -66 l0 -59 80 7 80 7 0 -226 c0 -146 4
-228 10 -232 6 -4 32 -4 58 0 l47 6 -3 225 -4 225 81 -7 81 -7 0 62 0 61 -187
0 c-104 0 -197 3 -208 6 -11 3 -24 2 -28 -2z"/>
<path d="M7783 2480 c-108 -54 -167 -145 -168 -255 0 -86 24 -140 93 -210 62
-64 110 -85 195 -85 76 0 141 26 189 77 38 40 48 74 48 164 l0 79 -62 0 c-35
0 -93 3 -130 7 l-68 6 0 -62 0 -62 48 7 c85 13 87 13 90 -27 3 -30 -2 -39 -24
-54 -40 -26 -97 -30 -149 -11 -57 22 -89 61 -105 126 -11 44 -10 57 5 95 42
113 165 148 251 73 l34 -30 26 31 c14 17 32 31 40 31 25 0 15 28 -18 53 -57
43 -120 69 -177 74 -48 4 -65 0 -118 -27z"/>
<path d="M2299 2484 c-65 -20 -132 -83 -170 -160 -29 -58 -31 -70 -26 -124 8
-74 36 -130 91 -184 118 -114 248 -117 371 -8 20 18 35 34 33 35 -2 1 -22 19
-44 40 l-41 38 -37 -37 c-35 -35 -39 -36 -92 -32 -88 7 -143 61 -152 147 -2
29 1 64 8 81 26 64 125 121 184 106 14 -3 41 -20 61 -37 l35 -31 9 25 c5 13
22 34 37 46 34 27 25 39 -59 81 -68 34 -130 38 -208 14z"/>
<path d="M2935 2488 c-71 -25 -147 -102 -175 -176 -27 -71 -25 -135 4 -198 93
-199 313 -246 449 -95 53 59 70 98 75 179 6 91 -13 145 -74 207 -79 82 -189
114 -279 83z m155 -120 c52 -36 73 -71 78 -131 6 -70 -23 -138 -70 -167 -47
-30 -137 -24 -174 11 -63 58 -83 168 -41 230 52 77 141 102 207 57z"/>
<path d="M3510 2492 c-13 -6 -15 -48 -15 -284 l0 -278 57 0 58 0 0 172 0 171
21 -19 c33 -29 175 -200 222 -266 38 -54 44 -58 80 -58 l40 0 -7 61 c-3 34 -6
162 -6 283 l0 222 -55 0 -54 -1 5 -55 c2 -30 1 -103 -3 -161 l-8 -106 -115
134 c-63 73 -122 147 -130 163 -12 23 -22 29 -45 29 -16 0 -37 -3 -45 -7z"/>
<path d="M4304 2470 c-80 -39 -109 -79 -109 -147 0 -45 4 -56 33 -86 31 -32
111 -74 177 -94 24 -7 31 -15 33 -39 3 -35 -11 -51 -48 -55 -53 -5 -80 2 -110
28 -32 26 -32 26 -65 8 -19 -9 -36 -24 -39 -31 -8 -21 42 -72 98 -101 114 -58
237 -13 282 102 30 79 -4 155 -83 187 -21 9 -65 27 -98 40 -50 20 -61 28 -63
50 -4 35 30 58 84 58 33 0 47 -5 62 -25 11 -14 24 -25 29 -25 5 0 24 21 42 46
36 52 36 54 -45 94 -57 28 -110 26 -180 -10z"/>
<path d="M4760 2328 c0 -95 5 -190 10 -210 16 -55 69 -119 130 -155 71 -43
132 -44 210 -5 47 24 59 36 85 87 30 58 30 59 33 257 l3 198 -54 0 -54 0 -6
-82 c-4 -46 -7 -127 -7 -180 0 -114 -8 -141 -52 -168 -46 -28 -90 -26 -129 7
-55 47 -61 75 -53 259 l7 164 -62 0 -61 0 0 -172z"/>
<path d="M6582 2215 l-4 -285 67 0 c57 0 66 2 61 16 -3 9 -6 137 -6 285 l0
269 -57 0 -58 0 -3 -285z"/>
<path d="M6944 2268 c4 -128 9 -257 12 -285 l6 -53 50 0 49 0 -7 167 c-5 129
-4 164 5 159 7 -5 43 -49 80 -100 37 -50 94 -119 125 -154 54 -58 61 -62 102
-62 l44 0 0 264 c0 145 3 271 6 280 5 14 -3 16 -55 16 l-61 0 0 -152 c0 -84
-3 -163 -6 -175 -6 -21 -10 -18 -49 30 -109 132 -215 271 -215 284 0 9 -14 13
-46 13 l-47 0 7 -232z"/>
<path d="M5092 1707 c-18 -18 -37 -48 -42 -66 -17 -59 12 -143 56 -163 20 -10
29 -8 52 9 35 26 72 90 72 127 0 38 -35 93 -70 111 -37 19 -31 20 -68 -18z"/>
<path d="M2170 1633 c-57 -9 -70 -14 -70 -28 0 -8 10 -17 23 -20 45 -11 2841
-10 2871 1 36 12 43 28 19 40 -17 9 -2792 16 -2843 7z"/>
<path d="M5293 1633 c-33 -3 -43 -8 -43 -22 0 -13 10 -20 38 -25 68 -11 2802
-7 2823 4 15 9 17 15 9 30 -11 20 -30 20 -1398 18 -763 -1 -1406 -3 -1429 -5z"/>
</g>
</svg>
